<svg width="47" height="47" viewBox="0 0 47 47" fill="none" xmlns="http://www.w3.org/2000/svg">
<path d="M18.6042 26.9268C18.6042 28.8264 20.073 30.3539 21.8747 30.3539H25.5563C27.123 30.3539 28.3959 29.0222 28.3959 27.3576C28.3959 25.5756 27.6126 24.9293 26.4572 24.5181L20.5626 22.4618C19.4072 22.0506 18.6239 21.4239 18.6239 19.6222C18.6239 17.9772 19.8967 16.626 21.4634 16.626H25.1451C26.9467 16.626 28.4155 18.1535 28.4155 20.0531" stroke="#B0F7F7" stroke-width="2.5" stroke-linecap="round" stroke-linejoin="round"/>
<path d="M23.5 14.6875V32.3125" stroke="#B0F7F7" stroke-width="2.5" stroke-linecap="round" stroke-linejoin="round"/>
<path d="M43.0834 23.5003C43.0834 34.3103 34.3101 43.0837 23.5001 43.0837C12.6901 43.0837 3.91675 34.3103 3.91675 23.5003C3.91675 12.6903 12.6901 3.91699 23.5001 3.91699" stroke="#B0F7F7" stroke-width="2.5" stroke-linecap="round" stroke-linejoin="round"/>
<path d="M33.2917 5.875V13.7083H41.1251" stroke="#B0F7F7" stroke-width="2.5" stroke-linecap="round" stroke-linejoin="round"/>
<path d="M43.0834 3.91699L33.2917 13.7087" stroke="#B0F7F7" stroke-width="2.5" stroke-linecap="round" stroke-linejoin="round"/>
</svg>
